<?xml version="1.0" encoding="UTF-8"?>
<svg xmlns="http://www.w3.org/2000/svg" viewBox="0 0 820 420" role="img" aria-labelledby="t1">
  <title id="t1">National median occupancy proxy with middle 50 percent band, 2011 to 2023</title>
  <rect width="100%" height="100%" fill="#0f172a"/>
  <text x="410.0" y="30" text-anchor="middle" fill="#e2e8f0" font-size="16" font-weight="700"
    font-family="system-ui,sans-serif">Occupancy proxy: median and middle 50%</text>
  <text x="410.0" y="50" text-anchor="middle" fill="#94a3b8" font-size="12"
    font-family="system-ui,sans-serif">Dashboard-ready rows, CMS SNF cost reports</text>
  <line x1="72" y1="360" x2="760" y2="360" stroke="#334155" stroke-width="1"/>
  <line x1="72" y1="48" x2="72" y2="360" stroke="#334155" stroke-width="1"/>
  <path d="M 72.0,69.7 L 129.3,69.2 L 186.7,72.1 L 244.0,70.9 L 301.3,75.2 L 358.7,77.8 L 416.0,81.1 L 473.3,81.0 L 530.7,81.0 L 588.0,146.4 L 645.3,157.9 L 702.7,122.6 L 760.0,98.3 L 760.0,292.0 L 702.7,321.0 L 645.3,344.2 L 588.0,310.9 L 530.7,247.4 L 473.3,247.4 L 416.0,242.5 L 358.7,233.2 L 301.3,223.3 L 244.0,218.2 L 186.7,218.8 L 129.3,209.9 L 72.0,212.3 Z" fill="rgba(96,165,250,0.22)" stroke="none"/>
  <path d="M 72.0,118.7 L 129.3,117.9 L 186.7,123.2 L 244.0,120.9 L 301.3,128.1 L 358.7,135.4 L 416.0,140.2 L 473.3,142.1 L 530.7,143.6 L 588.0,217.2 L 645.3,244.6 L 702.7,211.2 L 760.0,176.7" fill="none" stroke="#60a5fa" stroke-width="2.5" stroke-linejoin="round" stroke-linecap="round"/>
  <text x="72.0" y="382" text-anchor="middle" fill="#94a3b8" font-size="11" font-family="system-ui,sans-serif">2011</text><text x="186.7" y="382" text-anchor="middle" fill="#94a3b8" font-size="11" font-family="system-ui,sans-serif">2013</text><text x="301.3" y="382" text-anchor="middle" fill="#94a3b8" font-size="11" font-family="system-ui,sans-serif">2015</text><text x="416.0" y="382" text-anchor="middle" fill="#94a3b8" font-size="11" font-family="system-ui,sans-serif">2017</text><text x="530.7" y="382" text-anchor="middle" fill="#94a3b8" font-size="11" font-family="system-ui,sans-serif">2019</text><text x="645.3" y="382" text-anchor="middle" fill="#94a3b8" font-size="11" font-family="system-ui,sans-serif">2021</text><text x="760.0" y="382" text-anchor="middle" fill="#94a3b8" font-size="11" font-family="system-ui,sans-serif">2023</text>
  <text x="760" y="66" text-anchor="end" fill="#94a3b8" font-size="11"
    font-family="system-ui,sans-serif">Sharp drop 2020–21; partial rebound by 2023</text>
</svg>