<?xml version="1.0" encoding="UTF-8"?>
<svg xmlns="http://www.w3.org/2000/svg" viewBox="0 0 780 520" role="img" aria-labelledby="t3">
  <title id="t3">States: weighted Medicaid day share vs median occupancy proxy, 2023</title>
  <rect width="100%" height="100%" fill="#0f172a"/>
  <text x="390.0" y="34" text-anchor="middle" fill="#e2e8f0" font-size="16" font-weight="700"
    font-family="system-ui,sans-serif">2023 states: Medicaid day share vs median occupancy</text>
  <text x="390.0" y="54" text-anchor="middle" fill="#94a3b8" font-size="11"
    font-family="system-ui,sans-serif">Each dot is one state; dot size scales with facility count</text>
  <line x1="72" y1="448" x2="740" y2="448" stroke="#334155"/>
  <line x1="72" y1="56" x2="72" y2="448" stroke="#334155"/>
  <text x="406.0" y="498" text-anchor="middle" fill="#94a3b8" font-size="12"
    font-family="system-ui,sans-serif">Weighted Medicaid share of resident days (0–1)</text>
  <text x="18" y="252.0" text-anchor="middle" fill="#94a3b8" font-size="12"
    font-family="system-ui,sans-serif" transform="rotate(-90 18 252.0)">Median occupancy proxy</text>
  <circle cx="591.4" cy="97.8" r="6.2" fill="rgba(96,165,250,0.35)" stroke="#60a5fa" stroke-width="1"/><circle cx="537.6" cy="193.4" r="22.0" fill="rgba(96,165,250,0.35)" stroke="#60a5fa" stroke-width="1"/><circle cx="537.9" cy="318.7" r="22.0" fill="rgba(96,165,250,0.35)" stroke="#60a5fa" stroke-width="1"/><circle cx="421.0" cy="260.2" r="22.0" fill="rgba(96,165,250,0.35)" stroke="#60a5fa" stroke-width="1"/><circle cx="388.9" cy="159.5" r="22.0" fill="rgba(96,165,250,0.35)" stroke="#60a5fa" stroke-width="1"/><circle cx="486.5" cy="238.5" r="22.0" fill="rgba(96,165,250,0.35)" stroke="#60a5fa" stroke-width="1"/><circle cx="554.5" cy="167.2" r="22.0" fill="rgba(96,165,250,0.35)" stroke="#60a5fa" stroke-width="1"/><circle cx="508.0" cy="244.0" r="7.6" fill="rgba(96,165,250,0.35)" stroke="#60a5fa" stroke-width="1"/><circle cx="477.1" cy="183.2" r="13.6" fill="rgba(96,165,250,0.35)" stroke="#60a5fa" stroke-width="1"/><circle cx="458.5" cy="157.4" r="22.0" fill="rgba(96,165,250,0.35)" stroke="#60a5fa" stroke-width="1"/><circle cx="404.9" cy="213.7" r="22.0" fill="rgba(96,165,250,0.35)" stroke="#60a5fa" stroke-width="1"/><circle cx="405.2" cy="275.8" r="12.6" fill="rgba(96,165,250,0.35)" stroke="#60a5fa" stroke-width="1"/><circle cx="374.2" cy="262.2" r="22.0" fill="rgba(96,165,250,0.35)" stroke="#60a5fa" stroke-width="1"/><circle cx="495.8" cy="313.4" r="18.7" fill="rgba(96,165,250,0.35)" stroke="#60a5fa" stroke-width="1"/><circle cx="414.5" cy="310.2" r="22.0" fill="rgba(96,165,250,0.35)" stroke="#60a5fa" stroke-width="1"/><circle cx="446.1" cy="313.0" r="22.0" fill="rgba(96,165,250,0.35)" stroke="#60a5fa" stroke-width="1"/><circle cx="391.3" cy="218.6" r="22.0" fill="rgba(96,165,250,0.35)" stroke="#60a5fa" stroke-width="1"/><circle cx="546.0" cy="191.2" r="22.0" fill="rgba(96,165,250,0.35)" stroke="#60a5fa" stroke-width="1"/><circle cx="564.2" cy="288.2" r="22.0" fill="rgba(96,165,250,0.35)" stroke="#60a5fa" stroke-width="1"/><circle cx="495.3" cy="189.1" r="22.0" fill="rgba(96,165,250,0.35)" stroke="#60a5fa" stroke-width="1"/><circle cx="443.1" cy="182.2" r="22.0" fill="rgba(96,165,250,0.35)" stroke="#60a5fa" stroke-width="1"/><circle cx="428.7" cy="176.0" r="18.5" fill="rgba(96,165,250,0.35)" stroke="#60a5fa" stroke-width="1"/><circle cx="398.8" cy="251.4" r="22.0" fill="rgba(96,165,250,0.35)" stroke="#60a5fa" stroke-width="1"/><circle cx="408.8" cy="217.0" r="22.0" fill="rgba(96,165,250,0.35)" stroke="#60a5fa" stroke-width="1"/><circle cx="521.6" cy="335.8" r="22.0" fill="rgba(96,165,250,0.35)" stroke="#60a5fa" stroke-width="1"/><circle cx="604.7" cy="194.5" r="22.0" fill="rgba(96,165,250,0.35)" stroke="#60a5fa" stroke-width="1"/><circle cx="475.9" cy="356.6" r="14.3" fill="rgba(96,165,250,0.35)" stroke="#60a5fa" stroke-width="1"/><circle cx="483.9" cy="241.7" r="22.0" fill="rgba(96,165,250,0.35)" stroke="#60a5fa" stroke-width="1"/><circle cx="409.1" cy="112.4" r="15.6" fill="rgba(96,165,250,0.35)" stroke="#60a5fa" stroke-width="1"/><circle cx="436.8" cy="312.3" r="22.0" fill="rgba(96,165,250,0.35)" stroke="#60a5fa" stroke-width="1"/><circle cx="481.3" cy="212.7" r="18.0" fill="rgba(96,165,250,0.35)" stroke="#60a5fa" stroke-width="1"/><circle cx="502.7" cy="237.9" r="22.0" fill="rgba(96,165,250,0.35)" stroke="#60a5fa" stroke-width="1"/><circle cx="538.2" cy="226.2" r="17.5" fill="rgba(96,165,250,0.35)" stroke="#60a5fa" stroke-width="1"/><circle cx="440.2" cy="178.6" r="15.9" fill="rgba(96,165,250,0.35)" stroke="#60a5fa" stroke-width="1"/><circle cx="523.0" cy="129.8" r="22.0" fill="rgba(96,165,250,0.35)" stroke="#60a5fa" stroke-width="1"/><circle cx="349.4" cy="216.7" r="22.0" fill="rgba(96,165,250,0.35)" stroke="#60a5fa" stroke-width="1"/><circle cx="571.9" cy="389.4" r="22.0" fill="rgba(96,165,250,0.35)" stroke="#60a5fa" stroke-width="1"/><circle cx="401.0" cy="369.2" r="22.0" fill="rgba(96,165,250,0.35)" stroke="#60a5fa" stroke-width="1"/><circle cx="499.0" cy="214.9" r="22.0" fill="rgba(96,165,250,0.35)" stroke="#60a5fa" stroke-width="1"/><circle cx="535.4" cy="184.8" r="18.3" fill="rgba(96,165,250,0.35)" stroke="#60a5fa" stroke-width="1"/><circle cx="479.1" cy="173.8" r="22.0" fill="rgba(96,165,250,0.35)" stroke="#60a5fa" stroke-width="1"/><circle cx="441.7" cy="178.7" r="18.3" fill="rgba(96,165,250,0.35)" stroke="#60a5fa" stroke-width="1"/><circle cx="463.4" cy="285.2" r="22.0" fill="rgba(96,165,250,0.35)" stroke="#60a5fa" stroke-width="1"/><circle cx="495.5" cy="381.0" r="22.0" fill="rgba(96,165,250,0.35)" stroke="#60a5fa" stroke-width="1"/><circle cx="443.4" cy="315.2" r="20.6" fill="rgba(96,165,250,0.35)" stroke="#60a5fa" stroke-width="1"/><circle cx="395.0" cy="152.6" r="22.0" fill="rgba(96,165,250,0.35)" stroke="#60a5fa" stroke-width="1"/><circle cx="249.7" cy="213.4" r="12.8" fill="rgba(96,165,250,0.35)" stroke="#60a5fa" stroke-width="1"/><circle cx="446.9" cy="294.8" r="22.0" fill="rgba(96,165,250,0.35)" stroke="#60a5fa" stroke-width="1"/><circle cx="417.0" cy="318.5" r="22.0" fill="rgba(96,165,250,0.35)" stroke="#60a5fa" stroke-width="1"/><circle cx="655.6" cy="112.1" r="22.0" fill="rgba(96,165,250,0.35)" stroke="#60a5fa" stroke-width="1"/><circle cx="487.6" cy="307.3" r="10.3" fill="rgba(96,165,250,0.35)" stroke="#60a5fa" stroke-width="1"/>
  <text x="663.6" y="106.1" fill="#e2e8f0" font-size="12" font-weight="600" font-family="system-ui,sans-serif">WV</text><text x="503.5" y="375.0" fill="#e2e8f0" font-size="12" font-weight="600" font-family="system-ui,sans-serif">TX</text><text x="396.9" y="153.5" fill="#e2e8f0" font-size="12" font-weight="600" font-family="system-ui,sans-serif">CA</text><text x="357.4" y="210.7" fill="#e2e8f0" font-size="12" font-weight="600" font-family="system-ui,sans-serif">OH</text>
</svg>